<?xml version="1.0" encoding="UTF-8"?>
<svg width="30px" height="20px" viewBox="0 0 30 20" version="1.1" xmlns="http://www.w3.org/2000/svg" xmlns:xlink="http://www.w3.org/1999/xlink">
    <title>youtube-logo</title>
    <g id="Page-1" stroke="none" stroke-width="1" fill="none" fill-rule="evenodd">
        <g id="youtube-logo" fill-rule="nonzero">
            <path d="M28.725,1.92727 C27.9112,0.523636 27.0281,0.265455 25.23,0.167273 C23.4338,0.0490909 18.9169,0 15.0037,0 C11.0831,0 6.56437,0.0490911 4.77,0.165455 C2.97562,0.265455 2.09063,0.521818 1.26937,1.92727 C0.43125,3.32909 0,5.74364 0,9.99455 C0,9.99818 0,10 0,10 C0,10.0036 0,10.0055 0,10.0055 L0,10.0091 C0,14.2418 0.43125,16.6745 1.26937,18.0618 C2.09063,19.4655 2.97375,19.72 4.76813,19.8382 C6.56437,19.94 11.0831,20 15.0037,20 C18.9169,20 23.4338,19.94 25.2319,19.84 C27.03,19.7218 27.9131,19.4673 28.7269,18.0636 C29.5725,16.6764 30,14.2436 30,10.0109 C30,10.0109 30,10.0055 30,10.0018 C30,10.0018 30,9.99818 30,9.99636 C30,5.74364 29.5725,3.32909 28.725,1.92727 Z M11.25,15.4545 L11.25,4.54545 L20.625,10 L11.25,15.4545 Z" id="Shape" fill="#AF0000"></path>
            <polygon id="Path" fill="#FFFFFF" points="10 16.4334 10 3.08203 21 9.75771"></polygon>
        </g>
    </g>
</svg>